<svg id="visual" viewBox="0 0 1700 700" width="1700" height="700" xmlns="http://www.w3.org/2000/svg" xmlns:xlink="http://www.w3.org/1999/xlink" version="1.1"><path d="M0 449L70.8 471.7C141.7 494.3 283.3 539.7 425 560.2C566.7 580.7 708.3 576.3 850 553.3C991.7 530.3 1133.3 488.7 1275 482.2C1416.7 475.7 1558.3 504.3 1629.2 518.7L1700 533L1700 701L1629.2 701C1558.3 701 1416.7 701 1275 701C1133.3 701 991.7 701 850 701C708.3 701 566.7 701 425 701C283.3 701 141.7 701 70.8 701L0 701Z" fill="#009193" stroke-linecap="round" stroke-linejoin="miter"></path></svg>